<svg width="316" height="289" viewBox="0 0 316 289" fill="none" xmlns="http://www.w3.org/2000/svg"><path d="M133.245 224.967l-4.768 5.075-12.813-.211 3.332-2.806 6.292-.259 1.143-.047-.81-.806-4.412-4.395 5.991-8.246 30.81-2.809-6.941 9.193-20.613 1.492-1.125.081.816.779 3.098 2.959z" fill="#fff" stroke="#000"/><path d="M157.952 208.173l-45.561 64.23 1.51 1.045 45.561-64.23-1.51-1.045z" fill="#000"/><path d="M162.126 204.275l-4.802 3.501 1.316.996h.009l1.316.996 2.161-5.493z" fill="#000"/><path d="M126.331 274.096l-3.64 7.201 7.913 6.784 9.661-.209" fill="#fff"/><path d="M130.263 289l-8.72-7.476 3.956-7.837 1.652.816-3.322 6.565 7.106 6.091 9.305-.199.039 1.822-10.016.218z" fill="#000"/><path d="M154.449 250.174l3.976-3.397 1.229 4.621" fill="#fff"/><path d="M158.772 251.637l-.864-3.217-2.852 2.439-1.201-1.376 5.081-4.345 1.613 6.034-1.777.465z" fill="#000"/><path d="M149.535 248.845l3.966-3.387 1.239 4.62" fill="#fff"/><path d="M153.847 250.307l-.855-3.207-2.862 2.438-1.2-1.385 5.089-4.336 1.604 6.025-1.776.465z" fill="#000"/><path d="M144.418 247.388l2.746-4.887 2.459 6.12" fill="#fff"/><path d="M148.778 248.953l-1.748-4.336-1.796 3.207-1.613-.883 3.688-6.556 3.178 7.894-1.709.674z" fill="#000"/><path d="M143.703 263.742c.452-8.994 4.994-9.099 4.888-8.539l6.454.218c2.909-.218 4.455-1.072 4.609-4.022l-10.102-2.391-3.803.949-.74-4.83 3.544-5.303 3.198 2.675 3.601-5.474 3.659 3.387 2.871-4.611 3.851 3.786 2.285-5.332.145-1.718.172-2.134-5.118-9.422-16.834 4.849-9.527 4.857s-9.392 1.49-8.364 12.239v10.342l-3.112 8.112-16.796-9.754-1.709 1.727c2.458 7.922 7.241 13.71 14.232 18.302l1.546 1.347 7.51 3.463-1.719 3.596 4.763 4.108 4.408 3.909h10.928l.01-1.234c0-2.172-.269-4.781-3.39-4.914h-4.149l-2.737-3.909s2.997-6.736 2.622-8.937" fill="#fff"/><path d="M149.455 288.989h-12.196l-4.667-4.136-5.272-4.554 1.613-3.397-6.895-3.226-1.498-1.309c-7.385-4.867-12.148-11.006-14.549-18.757l-.163-.522 2.603-2.618 16.469 9.563 2.66-6.945v-10.18c-1.018-10.588 7.673-12.837 8.979-13.112l9.574-4.867 17.555-5.057 5.599 10.313-.404 4.402-2.813 6.575-3.995-3.918-2.862 4.582-3.678-3.406-3.572 5.437-3.198-2.676-2.776 4.156.538 3.491 3.044-.759 11.063 2.619-.038.759c-.202 3.956-2.871 4.696-5.455 4.886h-.048l-7.404-.256a3.115 3.115 0 00-.586.389c-.816.692-2.218 2.571-2.448 7.315l-1.844-.095c.346-6.86 3.044-8.786 4.187-9.298.787-.351 1.556-.38 2.036-.085l6.021.208c2.391-.189 3.361-.787 3.63-2.419l-9.104-2.154-4.571 1.139-.951-6.167 4.312-6.452 3.188 2.666 3.64-5.521 3.63 3.368 2.89-4.64 3.707 3.643 1.69-3.956.279-3.444-4.638-8.539-16.038 4.621-9.699 4.905c-.346.057-8.528 1.508-7.596 11.262v10.588l-3.553 9.269-17.113-9.914-.816.825c2.352 7.201 6.712 12.704 13.694 17.296l.096.076 1.44 1.262 8.23 3.795-1.815 3.804 4.235 3.662 4.158 3.682h9.661v-.332c0-2.875-.653-3.919-2.506-4.004h-4.591l-3.303-4.716.211-.464c1.114-2.505 2.804-7.012 2.555-8.425l1.815-.304c.365 2.125-1.69 7.173-2.478 8.994l2.17 3.103h3.669c4.302.18 4.302 4.279 4.302 5.825l-.01 2.144z" fill="#000"/><path d="M140.678 269.843c1.229-1.565 3.985-6.831 3.985-6.831l3.217-2.808.086-1.11.404-5.161 3.63-3.463c-3.601-5.446-9.19-.987-9.19-.987l-.5 7.116-1.748-.342-3.351 1.139" fill="#fff"/><path d="M141.475 270.471l-1.614-1.243c.961-1.224 3.131-5.228 3.88-6.67l.086-.171 3.054-2.656.48-6.253 3.265-3.112c-.739-.873-1.594-1.385-2.554-1.537-1.786-.275-3.572.731-4.302 1.205l-.548 7.78-2.612-.503-3.092 1.044-.663-1.907 3.611-1.224.884.171.451-6.423.346-.276c.125-.095 3.025-2.372 6.252-1.869 1.776.275 3.274 1.319 4.446 3.093l.461.702-3.957 3.776-.49 6.3-3.389 2.951c-.49.939-2.833 5.351-3.995 6.822zM143.954 236.149l-6.575 1.819.494 1.755 6.576-1.819-.495-1.755z" fill="#000"/><path d="M143.577 236.33l-4.827 4.087 1.2 1.384 4.827-4.088-1.2-1.383zM147.294 230.897l-.509-1.746 10.064-2.837 2.094 1.433-1.047 1.499-1.383-.949-9.219 2.6z" fill="#000"/><path d="M165.359 243.183l-.168 1.796 7.871.716.167-1.795-7.87-.717zM170.61 254.635l-4.82-1.575 1.017-3.473-5.608-1.66.615-2.021 7.615 2.268-1.018 3.52 2.862.939-.663 2.002zM140.894 269.074c-1.806-10.484-10.218-6.907-10.218-6.907l10.218 6.907z" fill="#fff"/><path d="M139.975 269.225c-.528-3.083-1.7-5.142-3.476-6.1-2.478-1.338-5.436-.133-5.464-.124l-.73-1.669c.153-.067 3.783-1.575 7.058.189 2.305 1.234 3.793 3.729 4.427 7.401l-1.815.303z" fill="#000"/><path d="M122.073 242.501l3.073 3.178 1.153 4.222-.269 1.623-4.715 3.187-2.526-8.519 3.284-3.691z" fill="#fff"/><path d="M120.783 256.172l-3.025-10.209 4.283-4.81 3.918 4.061 1.277 4.63-.365 2.201-6.088 4.127zm-.97-9.763l2.026 6.841 3.342-2.258.173-1.044-1.047-3.804-2.218-2.296-2.276 2.561z" fill="#000"/><path d="M115.549 237.815s-.759-3.074-2.363-4.364c-1.748-1.404-2.458-1.575-2.458-1.575l.029 2.011-.269-.246a3.048 3.048 0 00-4.149.057l1.277.664a6.434 6.434 0 00-3.053 3.301l-.308.75 1.402.36-1.555 7.135 4.388-5.882 2.622-3.359 4.437 1.148z" fill="#fff"/><path d="M102.293 249.863l2.276-10.427-1.565-.408.701-1.708a7.245 7.245 0 012.112-2.865l-1.027-.541.902-.863a3.961 3.961 0 014.12-.863l-.019-1.461 1.143.265c.211.048 1.056.323 2.833 1.755 1.796 1.443 2.593 4.507 2.679 4.858l.365 1.48-5.339-1.376-2.248 2.885-6.933 9.269zm3.207-12.068l1.239.322-.835 3.843 1.844-2.467 3.005-3.852.788.199-1.681-1.527a2.09 2.09 0 00-1.421-.55h-.019l1.181.616-1.575.797a5.56 5.56 0 00-2.526 2.619zm6.194-1.917l2.44.636c-.365-.863-.884-1.831-1.537-2.353a17.764 17.764 0 00-.941-.711l.038 2.428z" fill="#000"/><path d="M129.406 269.568l6.607 1.366v-.057c.096-1.688-.912-3.244-2.496-3.88l-.25-.104.614-9.355-9.747-3.378c-2.093.323-3.217 2.619-2.151 4.431l.365.636 6.377 1.271.816 6.518-.135 2.552z" fill="#fff"/><path d="M136.899 271.978l-1.057-.161-7.384-1.528.172-3.254-.729-5.788-6.137-1.223-.576-.987a3.847 3.847 0 01-.135-3.624 3.946 3.946 0 012.949-2.164l.23-.038 10.631 3.682-.615 9.402a4.859 4.859 0 012.708 4.611l-.057 1.072zm-6.521-3.14l4.6.948a3.05 3.05 0 00-1.796-1.945l-.874-.341.605-9.327-8.854-3.064a2.068 2.068 0 00-1.363 1.11 1.99 1.99 0 00.076 1.926l.164.275 6.626 1.319.912 7.248-.096 1.851z" fill="#000"/><path d="M123.326 239.426c1.114-.797 1.066-1.736.807-3.074l-.029-.171-1.7.92a3.929 3.929 0 00-5.877-.322c-1.239 1.243-1.402 3.188-.509 4.696l.01.01c.941 1.575 2.861 2.4 4.619 1.821a3.954 3.954 0 001.411-.806l.096.038.077-.209a3.839 3.839 0 001.095-2.903z" fill="#fff"/><path d="M119.503 244.397c-1.691 0-3.352-.91-4.274-2.457-1.143-1.916-.874-4.298.634-5.806 1.008-1.006 2.324-1.518 3.736-1.433a4.86 4.86 0 012.986 1.252l2.19-1.176.259 1.404c.25 1.328.365 2.609-.797 3.672a4.728 4.728 0 01-1.22 2.96l-.345.92-.471-.189a5.096 5.096 0 01-1.268.626c-.47.152-.95.227-1.43.227zm-.192-7.874c-.798 0-1.547.313-2.132.901-.922.92-1.076 2.4-.365 3.596.749 1.262 2.237 1.859 3.543 1.432a3.006 3.006 0 001.076-.616l.134-.133a2.935 2.935 0 00.836-2.22l-.029-.494.413-.294c.403-.284.576-.55.576-1.072l-1.21.655-.48-.617a2.98 2.98 0 00-2.18-1.129c-.058-.009-.115-.009-.182-.009z" fill="#000"/><path d="M121.924 236.282l-2.865 1.662.933 1.571 2.866-1.662-.934-1.571z" fill="#000"/><path d="M119.069 249.795c1.697 0 3.073-1.359 3.073-3.036s-1.376-3.036-3.073-3.036-3.073 1.359-3.073 3.036 1.376 3.036 3.073 3.036z" fill="#fff"/><path d="M119.071 250.707a4.039 4.039 0 01-2.583-.939 3.902 3.902 0 01-1.393-2.685 3.896 3.896 0 01.941-2.875 3.96 3.96 0 012.718-1.375c2.199-.181 4.12 1.442 4.302 3.614.173 2.163-1.459 4.07-3.658 4.251-.106.009-.221.009-.327.009zm.01-6.072c-.058 0-.116 0-.173.01a2.177 2.177 0 00-1.469.74 2.08 2.08 0 00-.5 1.546c.048.569.317 1.082.749 1.452.432.37.999.541 1.566.503a2.136 2.136 0 001.968-2.296 2.15 2.15 0 00-2.141-1.955z" fill="#000"/><path d="M129.883 248.213c2.977-.54 4.014-.427 4.667 1.424.355.996-.24 2.077-1.191 2.134l-2.852.19-.624-3.748z" fill="#fff"/><path d="M129.735 252.928l-.903-5.446.884-.162c2.823-.521 4.753-.654 5.704 2.012.278.787.182 1.66-.279 2.334a2.24 2.24 0 01-1.738 1.005l-3.668.257zm1.21-3.966l.336 2.04 2.017-.133a.407.407 0 00.316-.199.815.815 0 00.068-.722c-.327-.92-.461-1.318-2.737-.986zM129.335 260.173l-.315 1.794 4.162.715.316-1.794-4.163-.715z" fill="#000"/><path d="M119.416 258.585l-.955-11.639 12.121-.974.955 11.641-5.731 4.391-6.39-3.419z" fill="#2C39F2" stroke="#000"/><path d="M129.036 255.15c.125-.01.269-.038.413-.095l.096 1.385a4.356 4.356 0 01-1.21.304c-.778.056-1.392-.171-1.748-.703-.71.617-1.565 1.016-2.698 1.092-1.441.104-2.737-.598-2.843-2.04-.134-1.85 1.662-2.562 3.188-2.666a8.349 8.349 0 011.835.066l-.02-.256c-.057-.731-.691-1.186-1.891-1.101-1.057.076-1.979.418-2.67.74l-.135-1.821c.605-.247 1.748-.617 2.939-.702 2.295-.162 3.832.626 4.005 3.026l.172 2.325c.02.379.289.465.567.446zm-6.031-.332c.048.597.653.939 1.393.891.682-.047 1.325-.275 1.853-.787l-.096-1.252a6.882 6.882 0 00-1.45-.076c-.893.057-1.757.408-1.7 1.224zM1.47 121.738l15.211 36.251 3.787-7.762 15.211 36.29 3.543-7.329 15.212 36.29 3.297-6.738 15.212 36.251 6.556-13.476-15.212-36.291-3.258 6.739-15.211-36.251-3.583 7.289-15.21-36.29-3.787 7.762-15.212-36.25-3.258 6.738-3.298 6.777zM250.333 198.436l-16.862 10.985 4.261 1.186-16.882 10.987 4.02 1.104-16.882 10.987 3.7 1.036-16.862 10.984 7.395 2.05 16.881-10.988-3.695-1.015 16.861-10.984-4.003-1.127 16.881-10.988-4.26-1.186 16.862-10.984-3.696-1.015-3.719-1.032zM95.629 86.681l1.55 20.043 3.088-3.162 1.544 20.062 2.901-2.99 1.543 20.061 2.686-2.742 1.551 20.042 5.352-5.491-1.544-20.062-2.666 2.749-1.551-20.042-2.913 2.964-1.543-20.061-3.089 3.161-1.55-20.042-2.667 2.749-2.692 2.761zM248.946 8.927l-29.396 40.84 11.013-1.077-29.44 40.867 10.377-1.052-29.439 40.867 9.567-.923-29.396 40.84 19.107-1.889 29.44-40.867-9.541.967 29.396-40.841-10.36.982 29.44-40.866-11.013 1.077 29.396-40.84-9.541.966-9.61.949z" fill="#fff"/></svg>
